<?xml version="1.0" standalone="no"?>
<!DOCTYPE svg PUBLIC "-//W3C//DTD SVG 20010904//EN"
 "http://www.w3.org/TR/2001/REC-SVG-20010904/DTD/svg10.dtd">
<svg version="1.0" xmlns="http://www.w3.org/2000/svg"
 width="500.000000pt" height="500.000000pt" viewBox="0 0 500.000000 500.000000"
 preserveAspectRatio="xMidYMid meet">
<metadata>
Created by potrace 1.16, written by Peter Selinger 2001-2019
</metadata>
<g transform="translate(0.000000,500.000000) scale(0.100000,-0.100000)"
fill="#000000" stroke="none">
<path d="M0 2500 l0 -2500 2500 0 2500 0 0 2500 0 2500 -2500 0 -2500 0 0
-2500z m1965 992 c22 -15 55 -49 72 -76 57 -84 66 -129 68 -351 5 -336 21
-368 241 -475 147 -71 205 -123 260 -235 31 -63 38 -89 42 -156 l5 -81 28 6
c57 11 228 80 353 142 70 35 134 64 141 64 8 0 26 12 42 26 15 14 70 55 121
91 51 36 123 93 160 126 63 59 65 60 32 17 -60 -77 -241 -259 -340 -342 -233
-195 -527 -353 -781 -422 -303 -81 -564 -70 -777 35 -212 104 -316 306 -284
549 13 94 54 228 91 295 12 22 19 31 15 20 -59 -173 -58 -168 -58 -290 -1
-110 1 -125 25 -175 41 -85 90 -134 179 -179 121 -60 204 -76 405 -76 94 0
188 4 210 9 l40 9 -50 23 c-40 19 -46 24 -30 30 51 17 183 86 210 109 24 20
15 18 -45 -14 -41 -22 -114 -53 -162 -70 -152 -53 -232 -53 -287 -2 -29 27
-31 33 -31 104 0 71 -2 77 -35 117 -21 26 -35 53 -35 70 0 15 -9 39 -21 53
-17 23 -19 35 -14 84 8 67 -5 88 -78 124 -49 25 -87 57 -87 74 0 7 26 52 58
101 91 138 95 152 96 344 1 182 7 206 79 313 30 45 34 48 67 43 19 -3 53 -18
75 -34z m-413 -1924 c9 -7 48 -91 87 -186 73 -180 74 -188 20 -180 -19 2 -31
24 -71 123 -77 192 -65 181 -99 95 -16 -41 -29 -76 -29 -77 0 -2 15 -3 34 -3
29 0 36 -5 44 -29 12 -35 3 -41 -64 -41 -41 0 -45 -3 -58 -35 -13 -31 -19 -35
-50 -35 -20 0 -36 2 -36 6 0 12 132 330 146 352 16 24 51 29 76 10z m269 -115
c1 -184 -2 -177 93 -181 48 -2 83 1 90 8 6 6 13 70 16 153 5 140 5 142 29 145
13 2 28 -2 32 -10 11 -16 11 -206 0 -271 -12 -74 -35 -91 -131 -96 -114 -5
-147 3 -170 42 -17 28 -20 51 -20 185 l0 152 30 0 30 0 1 -127z m598 103 c43
-39 35 -163 -12 -187 -12 -7 -23 -13 -25 -14 -1 -1 16 -34 38 -72 22 -39 40
-73 40 -77 0 -4 -17 -6 -37 -4 -36 3 -40 7 -82 81 l-44 78 -46 -3 -46 -3 -3
-77 -3 -78 -29 0 -30 0 0 110 0 110 108 0 c113 0 132 6 132 45 0 39 -19 45
-132 45 l-108 0 0 36 0 36 129 -4 c109 -2 132 -6 150 -22z m371 6 c41 -20 58
-69 59 -167 0 -92 -13 -146 -44 -172 -23 -20 -37 -23 -121 -23 -159 0 -179 24
-172 212 3 96 5 109 27 132 28 29 42 33 141 35 54 1 85 -4 110 -17z m389 -6
c43 -39 35 -163 -12 -187 -12 -7 -23 -13 -25 -14 -1 -1 16 -34 38 -72 22 -39
40 -73 40 -77 0 -4 -17 -6 -37 -4 -36 3 -40 7 -82 81 l-44 78 -46 -3 -46 -3
-3 -77 -3 -78 -29 0 -30 0 0 110 0 110 108 0 c113 0 132 6 132 45 0 39 -19 45
-132 45 l-108 0 0 36 0 36 129 -4 c109 -2 132 -6 150 -22z m309 15 c14 -8 152
-335 152 -359 0 -9 -10 -12 -32 -10 -32 3 -34 6 -89 140 -30 76 -57 140 -60
143 -5 5 -59 -121 -59 -138 0 -4 15 -7 34 -7 28 0 35 -4 40 -25 10 -38 0 -45
-55 -45 -48 0 -51 -2 -65 -35 -12 -31 -19 -35 -49 -35 -19 0 -35 4 -35 8 0 18
133 339 147 355 17 18 49 22 71 8z"/>
<path d="M2591 1496 c-8 -9 -11 -50 -9 -117 l3 -104 85 -3 c107 -4 110 0 110
119 0 112 -6 119 -104 119 -51 0 -77 -4 -85 -14z"/>
</g>
</svg>
